HIERARCHY
ROOT Hips
{
 OFFSET 0.000000 0.000000 0.000000
 CHANNELS 6 Xposition Yposition Zposition Yrotation Xrotation Zrotation
 JOINT Chest
 {
  OFFSET 0.000000 10.678932 0.006280
  CHANNELS 3 Yrotation Xrotation Zrotation
  JOINT Chest2
  {
   OFFSET 0.000000 10.491159 -0.011408
   CHANNELS 3 Yrotation Xrotation Zrotation
   JOINT Chest3
   {
    OFFSET 0.000000 9.479342 0.000000
    CHANNELS 3 Yrotation Xrotation Zrotation
    JOINT Chest4
    {
     OFFSET 0.000000 9.479342 0.000000
     CHANNELS 3 Yrotation Xrotation Zrotation
     JOINT Neck
     {
      OFFSET 0.000000 13.535332 0.000000
      CHANNELS 3 Yrotation Xrotation Zrotation
      JOINT Head
      {
       OFFSET 0.000000 8.819083 -0.027129
       CHANNELS 3 Yrotation Xrotation Zrotation
       End Site
       {
        OFFSET 0.000000 16.966594 -0.014170
       }
      }
     }
     JOINT RightCollar
     {
      OFFSET -3.012546 7.545150 0.000000
      CHANNELS 3 Yrotation Xrotation Zrotation
      JOINT RightShoulder
      {
       OFFSET -13.683099 0.000000 0.000000
       CHANNELS 3 Yrotation Xrotation Zrotation
       JOINT RightElbow
       {
        OFFSET -26.359998 0.000000 0.000000
        CHANNELS 3 Yrotation Xrotation Zrotation
        JOINT RightWrist
        {
         OFFSET -21.746691 0.000000 0.008601
         CHANNELS 3 Yrotation Xrotation Zrotation
         End Site
         {
          OFFSET -16.348058 0.000000 0.000000
         }
        }
       }
      }
     }
     JOINT LeftCollar
     {
      OFFSET 3.012546 7.545150 0.000000
      CHANNELS 3 Yrotation Xrotation Zrotation
      JOINT LeftShoulder
      {
       OFFSET 13.683099 0.000000 0.000000
       CHANNELS 3 Yrotation Xrotation Zrotation
       JOINT LeftElbow
       {
        OFFSET 26.359998 0.000000 0.000000
        CHANNELS 3 Yrotation Xrotation Zrotation
        JOINT LeftWrist
        {
         OFFSET 21.746691 0.000000 0.008601
         CHANNELS 3 Yrotation Xrotation Zrotation
         End Site
         {
          OFFSET 16.348058 0.000000 0.000000
         }
        }
       }
      }
     }
    }
   }
  }
 }
 JOINT RightHip
 {
  OFFSET -8.622479 -0.030774 -0.003140
  CHANNELS 3 Yrotation Xrotation Zrotation
  JOINT RightKnee
  {
   OFFSET 0.000000 -37.209160 -0.002630
   CHANNELS 3 Yrotation Xrotation Zrotation
   JOINT RightAnkle
   {
    OFFSET 0.000000 -37.343279 -0.058479
    CHANNELS 3 Yrotation Xrotation Zrotation
    JOINT RightToe
    {
     OFFSET 0.000000 -8.903465 15.088070
     CHANNELS 3 Yrotation Xrotation Zrotation
     End Site
     {
      OFFSET 0.000000 -1.471739 6.884388
     }
    }
   }
  }
 }
 JOINT LeftHip
 {
  OFFSET 8.622479 -0.030774 -0.003140
  CHANNELS 3 Yrotation Xrotation Zrotation
  JOINT LeftKnee
  {
   OFFSET 0.000000 -37.209160 -0.002630
   CHANNELS 3 Yrotation Xrotation Zrotation
   JOINT LeftAnkle
   {
    OFFSET 0.000000 -37.343279 -0.058479
    CHANNELS 3 Yrotation Xrotation Zrotation
    JOINT LeftToe
    {
     OFFSET 0.000000 -8.903465 15.088070
     CHANNELS 3 Yrotation Xrotation Zrotation
     End Site
     {
      OFFSET 0.000000 -1.471739 6.884388
     }
    }
   }
  }
 }
}
MOTION
Frames: 6
Frame Time: 0.150000
16.207637 80.002108 -160.189358 -141.082624 -8.353658 -6.417956 -1.291962 9.906621 1.214457 -0.105434 0.721355 0.096469 -0.163299 1.120847 0.149321 -1.186204 8.612091 1.071119 -5.707838 14.587785 2.791760 -11.775727 -8.578369 7.412519 -4.699671 -3.014210 -13.328590 21.501975 -37.784582 38.423246 49.750695 -17.136509 -6.329343 -3.109249 -4.746654 -16.746576 -4.452380 -8.054476 7.870116 5.829526 -19.499547 -56.526947 -69.900869 -14.256497 -6.381475 12.139022 -0.215607 23.687038 -2.557109 5.342004 -8.945605 -4.945217 24.793637 0.548207 -2.900983 -18.310062 9.888004 0.056066 -0.238022 -0.178935 -2.145808 -17.211552 37.343648 26.913390 54.752025 3.601467 0.314202 8.463929 -20.864616 -0.789713 -24.860151 3.367700
11.999028 78.124442 -159.295069 -165.098891 -7.234248 1.607093 8.117527 9.783336 1.956418 0.727571 0.925663 0.127083 1.099029 1.396503 0.196344 6.719798 8.322902 1.592360 -6.710961 12.452308 -4.341202 -10.963997 -13.108991 -5.452758 0.042268 -1.578325 -0.908278 15.496789 -27.301168 52.524564 25.181251 -9.993408 6.921464 0.059145 -4.652052 -20.682524 -2.616366 -17.289528 20.821476 15.908833 -29.810516 -55.967651 -96.247832 -34.706134 8.265730 13.837971 -1.063909 23.798482 -3.959044 -10.566761 -17.578292 12.986654 35.078052 -0.875217 6.549082 -22.404946 12.429597 -0.088886 0.071118 -0.051525 -36.203721 -5.507936 14.412857 -12.754850 57.571237 -3.501381 -6.812626 0.273473 -18.995630 -0.373376 -28.745829 -4.566467
10.688051 78.149638 -157.879566 -159.195166 -8.195876 3.950431 6.538683 10.903683 0.693066 0.558020 0.973005 0.078682 0.845748 1.473361 0.122871 5.310162 9.056071 1.114088 -7.863357 11.955094 -4.051316 -13.302836 -13.977720 -4.382192 1.820295 -1.610991 -3.234120 15.256131 -26.084806 48.256120 18.738564 -12.666686 2.862084 -1.106459 -3.447557 -19.479632 -9.959817 -15.888445 21.374412 9.326163 -38.369559 -54.291661 -83.770106 -39.885475 7.534608 12.227206 -0.986707 28.636915 -5.661957 -8.323598 -21.809641 10.222456 33.799327 -1.766130 4.673629 -21.386965 13.002685 -0.107302 0.054836 -0.167766 -22.006502 -7.251672 20.268233 -7.211573 51.246361 -6.818054 -18.544926 1.878870 -11.056544 0.201495 -33.429585 -2.179202
13.185189 79.226387 -157.105940 -139.452231 -10.365772 -12.276295 2.128670 11.471471 9.508528 0.143680 1.250391 0.997812 0.219812 1.845142 1.474456 1.644632 9.394372 7.705808 -8.324920 10.907167 0.734276 -16.358664 -15.337971 5.087255 7.584549 6.015540 -2.606489 40.046041 -39.944210 52.800788 38.201047 7.186700 8.233361 -0.896129 -3.818906 -17.534880 -33.636347 -13.613357 22.625906 -40.442472 -44.009542 -44.062837 -81.444748 -21.862072 -9.830538 11.712967 -1.034471 25.844125 -1.241369 12.116711 -6.632710 -9.704134 14.836619 0.154484 2.016426 -10.002765 15.626999 0.008235 -0.557045 -0.771344 10.275941 -25.121925 44.922719 21.446126 60.115080 -3.421276 -12.949037 8.886212 -5.089204 -0.444226 -27.354345 2.556755
13.226412 77.519815 -154.607288 -141.820017 -8.087282 -12.923544 3.626806 13.427165 9.526541 0.393859 1.781110 1.044115 0.579362 2.569927 1.512213 3.145994 11.338876 7.032025 -8.777352 6.041748 2.015322 -18.726012 -24.005134 8.744766 15.153701 7.444341 -7.694734 75.637052 -44.263996 35.493079 38.906522 4.609279 4.395988 2.051669 -6.899842 -18.291916 -35.328933 -14.033785 22.640521 -59.186128 -39.674566 -38.504549 -92.366446 -10.384438 -22.951826 9.998923 -1.980291 21.212041 6.191596 2.815582 -6.065635 -5.756595 25.438271 -1.377939 0.690919 -15.642823 15.831848 -0.095061 0.006897 0.328865 2.334322 -25.600717 42.967206 9.232968 62.909442 -11.937535 -1.119313 -6.797955 -5.352862 0.872748 -16.820079 -1.068425
15.975928 81.898407 -151.445362 -159.656478 -10.245532 -4.157207 4.240114 13.394049 2.726396 0.415956 1.404947 0.230435 0.619984 2.086232 0.346013 3.502500 11.114090 2.138120 -4.648189 10.359319 0.198098 -9.093569 -16.777168 2.503920 4.724182 -4.093338 -4.809704 35.538019 -31.716761 40.734859 36.776264 -8.956552 6.425927 -0.043522 -5.456520 -16.008748 -14.067955 -16.239499 27.209305 -14.200597 -17.408113 -42.613785 -56.560234 -12.610057 -6.573475 6.475753 -1.038995 22.805434 -3.925023 -14.203308 -17.357779 0.906355 45.619115 -1.010102 11.467768 -9.732902 15.770270 -0.107459 -2.449175 -1.096912 6.085842 -6.362913 25.426317 23.029478 39.131263 -1.416142 8.433013 -6.415428 -9.319794 0.063878 -7.843023 -2.879516
